<svg width="104" height="117" viewBox="0 0 104 117" fill="none" xmlns="http://www.w3.org/2000/svg">
<path d="M81.7305 37.3992C81.621 57.427 65.2971 73.5738 45.2693 73.4647C25.2415 73.3552 9.09471 57.031 9.2038 37.0035C9.31328 16.9757 25.6376 0.828926 45.665 0.938011C65.6928 1.04749 81.8396 17.3714 81.7305 37.3992Z" fill="#BEFFE5"/>
<path d="M104 64.6027C103.956 72.7035 97.3528 79.2347 89.2516 79.1909C81.1505 79.1464 74.6192 72.5435 74.6638 64.4424C74.7076 56.3416 81.3108 49.8104 89.4116 49.8545C97.5127 49.8987 104.044 56.5016 104 64.6027Z" fill="#BEFFE5"/>
<path d="M74.4578 102.897L19.8499 93.5798C18.4247 93.3366 17.4253 92.0393 17.5535 90.5992L24.484 12.7373C24.6123 11.2973 25.8251 10.197 27.2711 10.2095L82.6661 10.6834C84.2856 10.6971 85.5489 12.0898 85.4054 13.7031L77.6875 100.409C77.544 102.022 76.0543 103.17 74.4578 102.897Z" fill="#00A564"/>
<path d="M74.1888 100.136L20.5536 90.9851L27.1447 16.9409L81.5525 17.4062L74.1888 100.136Z" fill="#DEE3E9"/>
<mask id="mask0_1_45719" style="mask-type:luminance" maskUnits="userSpaceOnUse" x="20" y="16" width="62" height="85">
<path d="M20.5536 16.9407H81.5525V100.136H20.5536V16.9407Z" fill="white"/>
</mask>
<g mask="url(#mask0_1_45719)">
<mask id="mask1_1_45719" style="mask-type:luminance" maskUnits="userSpaceOnUse" x="20" y="16" width="62" height="85">
<path d="M74.1888 100.136L20.5536 90.9849L27.1444 16.9407L81.5525 17.406L74.1888 100.136Z" fill="white"/>
</mask>
<g mask="url(#mask1_1_45719)">
<mask id="mask2_1_45719" style="mask-type:luminance" maskUnits="userSpaceOnUse" x="-12968" y="-12661" width="25625" height="25625">
<path d="M-12967.7 -12661H12656.6V12963.3H-12967.7V-12661Z" fill="url(#paint0_linear_1_45719)"/>
</mask>
<g mask="url(#mask2_1_45719)">
<path d="M74.1869 100.143L20.5518 90.9912L27.1425 16.947L81.5506 17.4123L74.1869 100.143Z" fill="url(#paint1_linear_1_45719)"/>
</g>
</g>
</g>
<path d="M81.5531 17.4061L27.145 16.9408C27.145 16.9408 19.9275 77.8959 15.3102 81.8028L69.6518 93.6653L81.5531 17.4061Z" fill="white"/>
<path d="M15.3099 81.8027C15.3099 81.8027 9.33893 78.9159 9.86991 70.7197L58.3438 82.1002C58.3438 82.1002 68.366 101.902 70.4312 88.6682L69.6512 93.6652L15.3099 81.8027Z" fill="#DEE3E9"/>
<path d="M46.483 14.2455C46.4162 14.9966 45.753 15.5515 45.0019 15.4842C44.2508 15.4178 43.696 14.7546 43.7628 14.0035C43.8297 13.252 44.4928 12.6976 45.244 12.7644C45.9951 12.8313 46.5499 13.4944 46.483 14.2455Z" fill="#153060"/>
<path d="M65.9678 14.2163C65.9009 14.9674 65.2378 15.5223 64.4867 15.4554C63.7356 15.3886 63.1807 14.7254 63.2476 13.9743C63.3144 13.2232 63.9776 12.6684 64.7287 12.7352C65.4798 12.8021 66.0346 13.4652 65.9678 14.2163Z" fill="#153060"/>
<path d="M45.1224 14.1244L44.6904 18.9771C44.6216 19.7528 45.2331 20.4203 46.012 20.4191L52.4944 20.4081L52.5139 20.1782C52.5749 19.4627 53.1708 18.911 53.8895 18.9059L54.5084 18.9012C55.324 18.8954 55.9696 19.5894 55.9047 20.4027L62.8379 20.3913C63.5229 20.3902 64.0942 19.8666 64.1552 19.1839L64.608 14.0954" stroke="#153060" stroke-miterlimit="10" stroke-linejoin="round"/>
<path d="M34.3742 29.1321L68.8374 30.0407" stroke="#DEE3E9" stroke-miterlimit="10" stroke-linecap="round"/>
<path d="M33.9144 34.3044L68.3776 35.213" stroke="#DEE3E9" stroke-miterlimit="10" stroke-linecap="round"/>
<path d="M33.0642 39.4424L67.5274 40.3511" stroke="#DEE3E9" stroke-miterlimit="10" stroke-linecap="round"/>
<path d="M32.2147 44.5805L66.6779 45.4891" stroke="#DEE3E9" stroke-miterlimit="10" stroke-linecap="round"/>
<path d="M31.3645 49.7184L65.8277 50.627" stroke="#DEE3E9" stroke-miterlimit="10" stroke-linecap="round"/>
<path d="M48.0408 62.6034C47.7742 65.5992 45.1294 67.8115 42.134 67.5448C39.1381 67.2782 36.9258 64.6334 37.1925 61.6376C37.4592 58.6421 40.1039 56.4299 43.0993 56.6965C46.0952 56.9632 48.3075 59.6075 48.0408 62.6034Z" fill="#DEE3E9"/>
<path d="M32.5518 65.543C31.0324 63.6881 30.3438 61.1774 30.7035 58.8068C30.7911 58.2316 31.0222 57.5712 31.5821 57.4121C32.4067 57.1771 32.9999 58.1839 33.2646 58.9996C33.6067 60.0525 33.9485 61.1055 34.2902 62.1585C34.3547 62.3571 34.4313 62.5721 34.6089 62.6828C35.4436 63.2032 35.8358 60.8095 36.7531 61.1665C37.2536 61.3612 37.0972 62.1334 37.3947 62.5807C37.729 63.0836 38.506 62.9976 39.0342 62.7059C39.5628 62.4138 40.0402 61.968 40.6404 61.9063C41.2187 61.8468 41.7868 62.1624 42.3644 62.1002C43.3688 61.9915 44.1555 60.7833 45.128 61.057" stroke="#979797" stroke-width="0.5" stroke-miterlimit="10" stroke-linecap="round"/>
<path d="M42.2215 95.1591L33.7638 91.9052C32.2268 91.314 30.5013 92.0804 29.9097 93.6174C29.3185 95.1544 30.0849 96.8799 31.6223 97.4715L40.08 100.725C41.617 101.317 43.3425 100.55 43.9337 99.0128C44.5253 97.4758 43.7586 95.7507 42.2215 95.1591Z" fill="white"/>
<path d="M42.2217 95.1591L37.9931 93.5322L35.8516 99.0984L40.0802 100.725C41.6173 101.317 43.3427 100.55 43.9339 99.0128C44.5255 97.4758 43.7588 95.7507 42.2217 95.1591Z" fill="#00AEEF"/>
<mask id="mask3_1_45719" style="mask-type:luminance" maskUnits="userSpaceOnUse" x="29" y="93" width="15" height="8">
<path d="M29.714 93.8027H43.8557V100.924H29.714V93.8027Z" fill="white"/>
</mask>
<g mask="url(#mask3_1_45719)">
<mask id="mask4_1_45719" style="mask-type:luminance" maskUnits="userSpaceOnUse" x="29" y="93" width="15" height="8">
<path d="M42.142 99.0642L31.2073 94.8574C30.6395 94.6389 30.1778 94.2651 29.8497 93.8037C29.3852 95.2918 30.1473 96.9043 31.6229 97.472L40.0807 100.726C41.5567 101.294 43.2032 100.608 43.8558 99.1921C43.3029 99.3144 42.7097 99.2828 42.142 99.0642Z" fill="white"/>
</mask>
<g mask="url(#mask4_1_45719)">
<mask id="mask5_1_45719" style="mask-type:luminance" maskUnits="userSpaceOnUse" x="-12968" y="-12661" width="25625" height="25625">
<path d="M-12967.7 -12661H12656.6V12963.2H-12967.7V-12661Z" fill="url(#paint2_linear_1_45719)"/>
</mask>
<g mask="url(#mask5_1_45719)">
<path d="M42.1389 99.0633L31.2041 94.8565C30.6364 94.638 30.1746 94.2642 29.8466 93.8028C29.3821 95.2909 30.1441 96.9034 31.6198 97.4712L40.0775 100.725C41.5535 101.293 43.2 100.607 43.8526 99.1912C43.2997 99.3136 42.7066 99.2819 42.1389 99.0633Z" fill="url(#paint3_linear_1_45719)"/>
</g>
</g>
</g>
<path d="M54.8501 84.7338L46.1296 87.199C44.5449 87.6471 43.6233 89.2952 44.0714 90.8799C44.5195 92.4646 46.1671 93.3862 47.7523 92.9381L56.4727 90.4729C58.0575 90.0248 58.9791 88.3767 58.531 86.792C58.0829 85.2073 56.4348 84.2857 54.8501 84.7338Z" fill="white"/>
<path d="M54.8503 84.7337L50.4902 85.9666L52.1129 91.7053L56.4729 90.4729C58.0576 90.0248 58.9792 88.3767 58.5311 86.792C58.083 85.2073 56.435 84.2857 54.8503 84.7337Z" fill="#00AEEF"/>
<mask id="mask6_1_45719" style="mask-type:luminance" maskUnits="userSpaceOnUse" x="44" y="86" width="15" height="8">
<path d="M44.1333 86.9823H58.6398V93.0514H44.1333V86.9823Z" fill="white"/>
</mask>
<g mask="url(#mask6_1_45719)">
<mask id="mask7_1_45719" style="mask-type:luminance" maskUnits="userSpaceOnUse" x="44" y="86" width="15" height="8">
<path d="M57.1246 87.9071L45.8509 91.0946C45.2656 91.26 44.6716 91.2377 44.1324 91.0649C44.6529 92.5346 46.2294 93.3686 47.7508 92.9385L56.4716 90.4729C57.993 90.0428 58.8994 88.5069 58.5733 86.9824C58.2042 87.4117 57.7103 87.7414 57.1246 87.9071Z" fill="white"/>
</mask>
<g mask="url(#mask7_1_45719)">
<mask id="mask8_1_45719" style="mask-type:luminance" maskUnits="userSpaceOnUse" x="-12968" y="-12661" width="25625" height="25625">
<path d="M-12967.7 -12661H12656.6V12963.2H-12967.7V-12661Z" fill="url(#paint4_linear_1_45719)"/>
</mask>
<g mask="url(#mask8_1_45719)">
<path d="M57.1347 87.9102L45.861 91.0977C45.2757 91.2631 44.6818 91.2408 44.1426 91.0679C44.663 92.5377 46.2395 93.3717 47.7609 92.9416L56.4818 90.476C58.0032 90.0459 58.9095 88.51 58.5834 86.9855C58.2143 87.4148 57.7205 87.7444 57.1347 87.9102Z" fill="url(#paint5_linear_1_45719)"/>
</g>
</g>
</g>
<path d="M9.86365 17.0994H6.85959V14.0954H3.51224V17.0994H0.508179V20.4468H3.51224V23.4509H6.85959V20.4468H9.86365V17.0994Z" fill="#00A564"/>
<path d="M18.3911 29.1675H16.3517V27.1281H14.0792V29.1675H12.0397V31.44H14.0792V33.4795H16.3517V31.44H18.3911V29.1675Z" fill="#00A564"/>
<path d="M98.4053 23.8504H96.3658V21.8109H94.0934V23.8504H92.0539V26.1229H94.0934V28.1624H96.3658V26.1229H98.4053V23.8504Z" fill="#00A564"/>
<path d="M89.3324 92.6834C89.3324 94.1047 88.1806 95.2566 86.7593 95.2566C85.3384 95.2566 84.1861 94.1047 84.1861 92.6834C84.1861 91.2626 85.3384 90.1103 86.7593 90.1103C88.1806 90.1103 89.3324 91.2626 89.3324 92.6834Z" fill="#00A564"/>
<path d="M93.1394 98.0926C93.1394 98.8449 92.5294 99.4549 91.7768 99.4549C91.0245 99.4549 90.4145 98.8449 90.4145 98.0926C90.4145 97.3404 91.0245 96.7304 91.7768 96.7304C92.5294 96.7304 93.1394 97.3404 93.1394 98.0926Z" fill="#00A564"/>
<g opacity="0.2" filter="url(#filter0_f_1_45719)">
<ellipse cx="50.9169" cy="112.563" rx="45" ry="2.5" fill="#00A564"/>
</g>
<defs>
<filter id="filter0_f_1_45719" x="4.91687" y="109.063" width="92" height="7" filterUnits="userSpaceOnUse" color-interpolation-filters="sRGB">
<feFlood flood-opacity="0" result="BackgroundImageFix"/>
<feBlend mode="normal" in="SourceGraphic" in2="BackgroundImageFix" result="shape"/>
<feGaussianBlur stdDeviation="0.5" result="effect1_foregroundBlur_1_45719"/>
</filter>
<linearGradient id="paint0_linear_1_45719" x1="69.5281" y1="58.0304" x2="-29.7862" y2="49.1867" gradientUnits="userSpaceOnUse">
<stop stop-color="white" stop-opacity="0"/>
<stop offset="0.00195313" stop-color="white" stop-opacity="0"/>
<stop offset="1" stop-color="white"/>
</linearGradient>
<linearGradient id="paint1_linear_1_45719" x1="69.5277" y1="58.0349" x2="-29.7866" y2="49.1912" gradientUnits="userSpaceOnUse">
<stop stop-color="white"/>
<stop offset="0.00195313" stop-color="white"/>
<stop offset="1" stop-color="#235196"/>
</linearGradient>
<linearGradient id="paint2_linear_1_45719" x1="35.203" y1="88.0722" x2="38.3382" y2="105.881" gradientUnits="userSpaceOnUse">
<stop stop-color="white" stop-opacity="0"/>
<stop offset="0.00195313" stop-color="white" stop-opacity="0"/>
<stop offset="1" stop-color="white"/>
</linearGradient>
<linearGradient id="paint3_linear_1_45719" x1="35.1982" y1="88.0756" x2="38.3334" y2="105.884" gradientUnits="userSpaceOnUse">
<stop stop-color="white"/>
<stop offset="0.00195313" stop-color="white"/>
<stop offset="1" stop-color="#235196"/>
</linearGradient>
<linearGradient id="paint4_linear_1_45719" x1="44.9967" y1="83.2726" x2="58.1834" y2="95.6478" gradientUnits="userSpaceOnUse">
<stop stop-color="white" stop-opacity="0"/>
<stop offset="0.00195313" stop-color="white" stop-opacity="0"/>
<stop offset="1" stop-color="white"/>
</linearGradient>
<linearGradient id="paint5_linear_1_45719" x1="44.9922" y1="83.2759" x2="58.1789" y2="95.6511" gradientUnits="userSpaceOnUse">
<stop stop-color="white"/>
<stop offset="0.00195313" stop-color="white"/>
<stop offset="1" stop-color="#235196"/>
</linearGradient>
</defs>
</svg>
